<svg width="1282" height="622" viewBox="0 0 1282 622" fill="none" xmlns="http://www.w3.org/2000/svg">
<path d="M1 77.0613V1H128.55M1 77.0613H1281M1 77.0613V153.623M1281 77.0613V153.623M1281 77.0613V1H1153.7M1281 153.623H1M1281 153.623V231.186M1 153.623V231.186M1 231.186H1281M1 231.186V312.751M1281 231.186V312.751M1281 312.751H1M1281 312.751V390.814M1 312.751V390.814M1 390.814H1281M1 390.814V466.876M1281 390.814V466.876M1281 466.876H1M1281 466.876V546.44M1 466.876V546.44M1 546.44H1281M1 546.44V621H128.55M1281 546.44V621H1153.7M128.55 1V621M128.55 1H256.1M128.55 621H256.1M256.1 1V621M256.1 1H383.649M256.1 621H383.649M383.649 1V621M383.649 1H512.7M383.649 621H512.7M512.7 1V621M512.7 1H641.75M512.7 621H641.75M641.75 1V621M641.75 1H771.301M641.75 621H771.301M771.301 1V621M771.301 1H900.351M771.301 621H900.351M900.351 1V621M900.351 1H1026.4M900.351 621H1026.4M1026.4 1V621M1026.4 1H1153.7M1026.4 621H1153.7M1153.7 1V621" stroke="url(#paint0_linear_195_1309)"/>
<defs>
<linearGradient id="paint0_linear_195_1309" x1="641" y1="1" x2="641" y2="621" gradientUnits="userSpaceOnUse">
<stop stop-color="white"/>
<stop offset="0.297817"/>
<stop offset="0.475"/>
<stop offset="0.694523"/>
<stop offset="0.708927"/>
<stop offset="1" stop-color="white"/>
</linearGradient>
</defs>
</svg>
